<?xml version="1.0" standalone="no"?>
<!DOCTYPE svg PUBLIC "-//W3C//DTD SVG 20010904//EN"
 "http://www.w3.org/TR/2001/REC-SVG-20010904/DTD/svg10.dtd">
<svg version="1.0" xmlns="http://www.w3.org/2000/svg"
 width="128.000000pt" height="128.000000pt" viewBox="0 0 128.000000 128.000000"
 preserveAspectRatio="xMidYMid meet">

<g transform="translate(0.000000,128.000000) scale(0.100000,-0.100000)"
fill="#000000" stroke="none">
<path d="M1094 1149 c-11 -6 -146 -165 -299 -354 -153 -189 -281 -342 -285
-340 -4 3 -72 88 -151 191 -78 102 -154 193 -168 202 -34 23 -103 19 -140 -7
-35 -25 -55 -79 -47 -124 4 -21 77 -124 202 -287 107 -140 206 -266 219 -279
18 -18 38 -25 79 -29 53 -4 57 -3 88 29 39 41 647 792 673 832 45 70 -21 178
-109 176 -23 0 -50 -5 -62 -10z"/>
</g>
</svg>
